<?xml version="1.0" standalone="no"?>
<!DOCTYPE svg PUBLIC "-//W3C//DTD SVG 20010904//EN"
 "http://www.w3.org/TR/2001/REC-SVG-20010904/DTD/svg10.dtd">
<svg version="1.0" xmlns="http://www.w3.org/2000/svg"
 width="700.000000pt" height="700.000000pt" viewBox="0 0 700.000000 700.000000"
 preserveAspectRatio="xMidYMid meet">
<metadata>
Created by potrace 1.14, written by Peter Selinger 2001-2017
</metadata>
<g transform="translate(0.000000,700.000000) scale(0.100000,-0.100000)"
fill="#000000" stroke="none">
<path d="M3278 6996 c-1 -2 -39 -6 -83 -10 -500 -38 -1049 -216 -1485 -479
-101 -61 -236 -149 -280 -184 -8 -6 -51 -40 -95 -74 -426 -331 -813 -825
-1020 -1299 -25 -58 -50 -114 -55 -125 -45 -93 -150 -427 -176 -560 -2 -11
-10 -54 -19 -95 -22 -115 -30 -160 -41 -255 -26 -230 -26 -666 1 -826 2 -13 6
-46 9 -74 47 -408 239 -953 466 -1318 30 -48 60 -95 65 -105 24 -42 133 -191
208 -285 205 -255 439 -474 716 -671 67 -47 123 -86 126 -86 3 0 36 -20 75
-45 265 -170 704 -347 1045 -421 72 -16 211 -41 274 -50 25 -3 57 -8 71 -10
163 -25 682 -25 842 1 13 2 46 6 73 10 28 3 57 8 65 10 8 2 31 6 50 9 266 40
612 151 898 287 714 342 1295 919 1641 1633 115 237 219 533 267 761 17 81 53
292 59 345 4 36 9 81 12 100 8 68 10 546 2 610 -4 36 -10 93 -14 127 -3 34 -8
72 -10 85 -3 13 -8 43 -11 68 -3 25 -7 53 -10 62 -5 18 -11 46 -20 93 -3 17
-18 82 -34 145 -161 644 -526 1250 -1031 1715 -413 380 -946 668 -1487 805
-121 30 -244 56 -312 65 -19 3 -46 7 -60 10 -13 2 -54 7 -90 11 -36 3 -78 8
-95 11 -33 5 -531 13 -537 9z m519 -350 c12 -2 53 -8 90 -11 37 -4 75 -8 83
-10 8 -3 31 -7 50 -10 19 -3 60 -10 90 -16 30 -7 60 -12 65 -13 106 -21 320
-85 445 -133 567 -217 1054 -586 1418 -1073 306 -410 526 -946 588 -1430 3
-25 7 -56 10 -70 30 -171 24 -623 -11 -835 -2 -16 -7 -48 -10 -70 -4 -22 -18
-92 -31 -155 -79 -363 -227 -718 -432 -1035 -241 -374 -595 -724 -964 -954
-384 -240 -832 -405 -1238 -457 -25 -3 -56 -7 -70 -10 -107 -18 -485 -25 -640
-12 -85 8 -230 25 -275 33 -454 83 -888 260 -1253 513 -512 353 -903 839
-1138 1413 -65 159 -142 405 -159 509 -3 19 -8 42 -10 50 -2 8 -7 29 -10 45
-2 17 -7 39 -9 50 -2 11 -7 45 -10 76 -4 31 -9 67 -12 80 -18 91 -25 475 -11
649 16 203 73 496 132 675 33 100 78 221 101 273 13 29 24 55 24 58 0 14 133
268 185 354 462 761 1212 1289 2077 1465 70 14 149 28 175 31 26 3 59 7 73 10
14 2 66 7 115 10 50 4 92 8 93 9 6 5 445 -3 469 -9z"/>
<path d="M3969 6122 c-109 -124 -302 -343 -314 -356 -6 -6 -60 -67 -120 -136
-60 -69 -112 -127 -115 -130 -3 -3 -68 -77 -145 -165 -77 -88 -142 -162 -145
-165 -10 -10 -96 -107 -156 -175 -75 -86 -139 -159 -180 -205 -17 -19 -55 -62
-84 -95 -29 -33 -80 -91 -114 -129 -33 -38 -65 -74 -71 -80 -5 -6 -45 -52 -89
-101 -43 -50 -92 -106 -110 -125 -17 -19 -63 -71 -101 -115 -39 -44 -72 -82
-75 -85 -6 -6 -65 -73 -146 -165 -34 -39 -117 -133 -186 -210 -68 -77 -204
-232 -303 -345 -99 -112 -187 -211 -195 -220 -8 -9 -29 -32 -45 -51 -207 -236
-251 -286 -265 -301 -24 -23 -90 -104 -90 -110 0 -2 33 1 73 8 39 7 92 15 117
19 25 3 56 8 70 10 14 2 43 7 65 10 23 3 50 7 60 9 19 3 76 13 135 21 14 2 54
9 90 14 36 6 83 13 105 16 22 4 81 12 130 20 50 8 110 17 135 20 25 3 83 12
130 20 47 8 105 17 130 20 41 5 196 29 362 56 37 6 78 12 90 14 13 2 43 6 68
9 25 4 57 9 71 11 24 4 42 7 137 20 35 5 135 21 192 30 112 18 158 25 175 25
20 0 20 -7 21 -309 1 -170 4 -316 7 -323 4 -13 233 -16 698 -9 l46 1 -2 379
-2 379 76 12 c42 6 81 13 88 15 7 2 15 1 17 -4 6 -9 13 -302 32 -1306 5 -301
9 -412 12 -426 1 -4 84 -5 185 -2 198 4 498 11 535 12 l24 1 -6 343 c-4 188
-9 428 -11 532 -3 105 -7 332 -10 505 -3 173 -8 405 -10 515 -2 110 -7 342
-10 515 -3 173 -8 403 -10 510 -2 107 -7 337 -10 510 -6 316 -11 508 -14 523
0 5 -117 6 -258 3 -142 -4 -309 -7 -370 -8 l-113 -2 -1 -25 c0 -38 3 -266 6
-421 2 -74 6 -297 10 -495 4 -198 8 -397 9 -441 l2 -82 -68 -11 c-37 -6 -77
-11 -90 -11 l-23 0 -1 363 c-4 1168 -10 1897 -15 1897 -3 0 -17 -12 -30 -28z
m-699 -2140 l0 -209 -67 -11 c-38 -7 -81 -14 -98 -16 -16 -3 -78 -12 -137 -21
-60 -9 -112 -15 -117 -13 -6 1 9 24 32 50 23 25 118 132 211 237 93 105 170
191 172 191 2 0 4 -94 4 -208z"/>
</g>
</svg>
